<?xml version="1.0" encoding="utf-8"?>
<!-- Generator: Adobe Illustrator 16.0.0, SVG Export Plug-In . SVG Version: 6.00 Build 0)  -->
<!DOCTYPE svg PUBLIC "-//W3C//DTD SVG 1.1//EN" "http://www.w3.org/Graphics/SVG/1.1/DTD/svg11.dtd">
<svg version="1.1" id="Layer_1" xmlns="http://www.w3.org/2000/svg" xmlns:xlink="http://www.w3.org/1999/xlink" x="0px" y="0px"
	 width="50px" height="38px" viewBox="0 0 50 38" enable-background="new 0 0 50 38" xml:space="preserve">
<g>
	<g>
		<polygon fill="#CA8E2B" points="1.619,27.873 1.619,29.43 4.052,29.43 4.052,30.239 1.619,30.239 1.619,32.452 0.715,32.452 
			0.715,27.055 4.312,27.055 4.305,27.873 		"/>
		<g>
			<path fill="#CA8E2B" d="M9.889,30.194c0,1.401-0.883,2.258-2.334,2.258c-1.453,0-2.343-0.856-2.343-2.258v-3.14h0.906v3.14
				c0,0.904,0.561,1.447,1.444,1.447c0.875,0,1.42-0.537,1.42-1.447v-3.14h0.907V30.194z"/>
			<path fill="#CA8E2B" d="M13.607,30.816c-0.078,0.01-0.164,0.01-0.249,0.01h-1.292v1.626h-0.919v-5.397h2.21
				c1.392,0,2.194,0.673,2.194,1.844c0,0.863-0.404,1.472-1.128,1.749l1.221,1.805h-1.042L13.607,30.816z M13.358,30.008
				c0.84,0,1.322-0.353,1.322-1.087c0-0.709-0.482-1.048-1.322-1.048h-1.292v2.135H13.358z"/>
			<polygon fill="#CA8E2B" points="20.688,32.452 17.814,28.583 17.814,32.452 16.905,32.452 16.905,27.055 17.799,27.055 
				20.688,30.934 20.688,27.055 21.582,27.055 21.582,32.452 			"/>
			<rect x="23.201" y="27.055" fill="#CA8E2B" width="0.9" height="5.397"/>
			<polygon fill="#CA8E2B" points="27.788,27.873 27.788,32.452 26.879,32.452 26.879,27.873 25.179,27.873 25.179,27.055 
				29.496,27.055 29.496,27.873 			"/>
			<path fill="#CA8E2B" d="M35.433,29.746c0,1.524-1.218,2.706-2.789,2.706c-1.569,0-2.788-1.182-2.788-2.706
				c0-1.531,1.219-2.691,2.788-2.691C34.215,27.055,35.433,28.222,35.433,29.746 M30.757,29.746c0,1.06,0.865,1.897,1.895,1.897
				c1.03,0,1.873-0.838,1.873-1.897c0-1.058-0.843-1.883-1.873-1.883C31.614,27.863,30.757,28.688,30.757,29.746"/>
			<polygon fill="#CA8E2B" points="41.013,32.452 39.754,28.243 38.479,32.452 37.554,32.452 35.792,27.055 36.756,27.055 
				38.046,31.442 39.329,27.063 40.209,27.055 41.498,31.442 42.783,27.055 43.706,27.055 41.934,32.452 			"/>
			<polygon fill="#CA8E2B" points="48.39,32.452 45.518,28.583 45.518,32.452 44.607,32.452 44.607,27.055 45.499,27.055 
				48.39,30.934 48.39,27.055 49.284,27.055 49.284,32.452 			"/>
			<polygon fill="#CA8E2B" points="13.672,37.839 13.672,37.055 12.609,37.055 12.609,37.839 12.408,37.839 12.408,36.058 
				12.609,36.058 12.609,36.861 13.672,36.861 13.672,36.058 13.875,36.058 13.875,37.839 			"/>
			<path fill="#CA8E2B" d="M16.151,36.946c0,0.503-0.408,0.901-0.923,0.901c-0.516,0-0.924-0.398-0.924-0.901
				c0-0.502,0.408-0.896,0.924-0.896C15.743,36.051,16.151,36.447,16.151,36.946 M14.508,36.946c0,0.395,0.328,0.705,0.72,0.705
				c0.394,0,0.716-0.311,0.716-0.705c0-0.39-0.322-0.702-0.716-0.702C14.836,36.244,14.508,36.557,14.508,36.946"/>
			<polygon fill="#CA8E2B" points="18.179,37.839 18.176,36.371 17.534,37.649 17.414,37.649 16.773,36.371 16.773,37.839 
				16.582,37.839 16.582,36.058 16.831,36.058 17.476,37.339 18.119,36.058 18.366,36.058 18.366,37.839 			"/>
			<polygon fill="#CA8E2B" points="19.166,36.254 19.166,36.838 20.056,36.838 20.056,37.035 19.166,37.035 19.166,37.646 
				20.194,37.646 20.194,37.839 18.965,37.839 18.965,36.058 20.162,36.058 20.162,36.254 			"/>
			<polygon fill="#CA8E2B" points="21.623,36.254 21.623,36.88 22.446,36.88 22.446,37.076 21.623,37.076 21.623,37.839 
				21.421,37.839 21.421,36.058 22.542,36.058 22.542,36.254 			"/>
			<path fill="#CA8E2B" d="M24.343,37.104c0,0.465-0.277,0.743-0.738,0.743c-0.463,0-0.743-0.278-0.743-0.743v-1.047h0.202v1.047
				c0,0.348,0.207,0.547,0.542,0.547s0.537-0.199,0.537-0.547v-1.047h0.202V37.104z"/>
			<path fill="#CA8E2B" d="M25.688,37.271c-0.038,0.002-0.077,0.006-0.118,0.006h-0.468v0.562H24.9v-1.781h0.67
				c0.442,0,0.696,0.219,0.696,0.597c0,0.295-0.141,0.494-0.396,0.578l0.414,0.606h-0.229L25.688,37.271z M25.57,37.08
				c0.32,0,0.501-0.143,0.501-0.42c0-0.27-0.182-0.406-0.501-0.406h-0.468v0.826H25.57z"/>
			<polygon fill="#CA8E2B" points="28.044,37.839 26.985,36.407 26.985,37.839 26.784,37.839 26.784,36.058 26.992,36.058 
				28.051,37.488 28.051,36.058 28.25,36.058 28.25,37.839 			"/>
			<rect x="28.85" y="36.058" fill="#CA8E2B" width="0.201" height="1.781"/>
			<path fill="#CA8E2B" d="M30.731,36.214l-0.085,0.192c-0.159-0.108-0.346-0.151-0.486-0.151c-0.227,0-0.376,0.087-0.376,0.237
				c0,0.457,0.993,0.22,0.99,0.865c0,0.297-0.26,0.489-0.637,0.489c-0.258,0-0.509-0.113-0.676-0.273l0.091-0.183
				c0.165,0.16,0.389,0.252,0.588,0.252c0.254,0,0.412-0.105,0.412-0.274c0.002-0.469-0.991-0.22-0.991-0.858
				c0-0.28,0.245-0.462,0.611-0.462C30.377,36.048,30.585,36.116,30.731,36.214"/>
			<polygon fill="#CA8E2B" points="32.516,37.839 32.516,37.055 31.451,37.055 31.451,37.839 31.251,37.839 31.251,36.058 
				31.451,36.058 31.451,36.861 32.516,36.861 32.516,36.058 32.718,36.058 32.718,37.839 			"/>
			<rect x="33.313" y="36.058" fill="#CA8E2B" width="0.201" height="1.781"/>
			<polygon fill="#CA8E2B" points="35.372,37.839 34.313,36.407 34.313,37.839 34.113,37.839 34.113,36.058 34.321,36.058 
				35.381,37.488 35.381,36.058 35.579,36.058 35.579,37.839 			"/>
			<path fill="#CA8E2B" d="M37.586,36.968v0.647c-0.174,0.14-0.417,0.232-0.654,0.232c-0.511,0-0.919-0.398-0.919-0.901
				c0-0.499,0.408-0.896,0.929-0.896c0.245,0,0.48,0.097,0.65,0.245l-0.115,0.154c-0.145-0.131-0.338-0.206-0.535-0.206
				c-0.404,0-0.725,0.312-0.725,0.702c0,0.396,0.324,0.708,0.727,0.708c0.158,0,0.329-0.055,0.465-0.149v-0.537H37.586z"/>
			<path fill="#CA8E2B" d="M35.541,7.028l-0.469-0.312l-8.885-5.923l-1.079-0.719L25,0L24.89,0.073l-1.079,0.719l-8.886,5.923
				l-0.468,0.312l-0.251,0.167v0.552v0.313v5.924v0.718v6.955h0.72v-0.719v-0.681v-5.556h2.759v5.556v1.399h0.719v-1.399v-5.556
				h2.758v5.556v0.681v0.719h0.719v-0.719v-6.236v-0.718h-3.478v-2.76h13.191v2.76h-3.478v0.718v6.236v0.719h0.72v-0.719v-0.681
				v-5.556h2.758v5.556v1.399h0.72v-1.399v-5.556h2.758v5.556v1.399h0.72v-6.955v-0.718V8.061V7.748V7.196L35.541,7.028z
				 M32.314,13.985v-3.479h-14.63v3.479h-2.759V7.748V7.581l0.829-0.553L25,0.865l9.246,6.164l0.827,0.553v0.167v6.237H32.314z"/>
		</g>
	</g>
</g>
</svg>
