<?xml version="1.0" encoding="utf-8"?>
<!-- Generator: Adobe Illustrator 16.0.0, SVG Export Plug-In . SVG Version: 6.00 Build 0)  -->
<!DOCTYPE svg PUBLIC "-//W3C//DTD SVG 1.1//EN" "http://www.w3.org/Graphics/SVG/1.1/DTD/svg11.dtd">
<svg version="1.1" id="Layer_1" xmlns="http://www.w3.org/2000/svg" xmlns:xlink="http://www.w3.org/1999/xlink" x="0px" y="0px"
	 width="40px" height="39px" viewBox="0 0 40 39" enable-background="new 0 0 40 39" xml:space="preserve">
<path fill="#FFFFFF" d="M38.886,12.589l-0.841-0.56L22.13,1.419L20.196,0.13L20.001,0l-0.195,0.13l-1.934,1.289L1.956,12.03
	l-0.839,0.56l-0.449,0.3v0.99v0.559V25.05v1.289v12.46h1.289V37.51v-1.218v-9.953h4.941v9.953v2.507h1.289v-2.507v-9.953h4.941
	v9.953v1.218v1.289h1.289V37.51V26.339V25.05H8.186v-4.941h23.63v4.941h-6.229v1.289V37.51v1.289h1.288V37.51v-1.218v-9.953h4.94
	v9.953v2.507h1.29v-2.507v-9.953h4.939v9.953v2.507h1.289v-12.46V25.05V14.438v-0.559v-0.99L38.886,12.589z M33.105,25.05v-6.23
	H6.897v6.23H1.956v-11.17v-0.301l1.484-0.989l16.561-11.04l16.561,11.04l1.483,0.989v0.301v11.17H33.105z"/>
</svg>
